<?xml version="1.0" encoding="utf-8" standalone="no"?>
<!DOCTYPE svg PUBLIC "-//W3C//DTD SVG 1.1//EN"
  "http://www.w3.org/Graphics/SVG/1.1/DTD/svg11.dtd">
<!-- Created with matplotlib (https://matplotlib.org/) -->
<svg height="180.72pt" version="1.1" viewBox="0 0 181.8 180.72" width="181.8pt" xmlns="http://www.w3.org/2000/svg" xmlns:xlink="http://www.w3.org/1999/xlink">
 <metadata>
  <rdf:RDF xmlns:cc="http://creativecommons.org/ns#" xmlns:dc="http://purl.org/dc/elements/1.1/" xmlns:rdf="http://www.w3.org/1999/02/22-rdf-syntax-ns#">
   <cc:Work>
    <dc:type rdf:resource="http://purl.org/dc/dcmitype/StillImage"/>
    <dc:date>2021-04-28T10:07:24.440838</dc:date>
    <dc:format>image/svg+xml</dc:format>
    <dc:creator>
     <cc:Agent>
      <dc:title>Matplotlib v3.3.3, https://matplotlib.org/</dc:title>
     </cc:Agent>
    </dc:creator>
   </cc:Work>
  </rdf:RDF>
 </metadata>
 <defs>
  <style type="text/css">*{stroke-linecap:butt;stroke-linejoin:round;}</style>
 </defs>
 <g id="figure_1">
  <g id="patch_1">
   <path d="M 0 180.72 
L 181.8 180.72 
L 181.8 0 
L 0 0 
z
" style="fill:none;"/>
  </g>
  <g id="axes_1">
   <g id="line2d_1">
    <path clip-path="url(#p9882393ad9)" d="M 14.809091 15.071816 
L 32.056364 15.163004 
L 35.1 15.35605 
L 37.129091 15.614756 
L 39.158182 16.052154 
L 41.187273 16.762251 
L 43.216364 17.865438 
L 44.230909 18.608404 
L 45.245455 19.503551 
L 46.26 20.568744 
L 47.274545 21.819991 
L 48.289091 23.270702 
L 50.318182 26.802 
L 52.347273 31.163835 
L 54.376364 36.245475 
L 57.42 44.688304 
L 60.463636 53.112001 
L 62.492727 58.148604 
L 64.521818 62.420163 
L 65.536364 64.22437 
L 66.550909 65.801289 
L 67.565455 67.1577 
L 68.58 68.309545 
L 70.609091 70.106743 
L 73.652727 72.125652 
L 75.681818 73.581872 
L 76.696364 74.483569 
L 77.710909 75.547898 
L 78.725455 76.801077 
L 79.74 78.256553 
L 81.769091 81.753545 
L 83.798182 85.861293 
L 87.856364 94.440365 
L 89.885455 98.084568 
L 90.9 99.589884 
L 91.914545 100.840477 
L 92.929091 101.811134 
L 93.943636 102.482348 
L 94.958182 102.839419 
L 95.972727 102.871431 
L 96.987273 102.549882 
L 98.001818 101.886168 
L 99.016364 100.872732 
L 100.030909 99.505314 
L 101.045455 97.782655 
L 102.06 95.707351 
L 103.074545 93.28645 
L 105.103636 87.461418 
L 107.132727 80.477661 
L 109.161818 72.611474 
L 116.263636 43.910066 
L 118.292727 37.030399 
L 120.321818 31.244295 
L 122.350909 26.59934 
L 123.365455 24.689059 
L 124.38 23.033689 
L 125.394545 21.613446 
L 126.409091 20.406439 
L 127.423636 19.389834 
L 128.438182 18.540828 
L 130.467273 17.258976 
L 132.496364 16.402916 
L 134.525455 15.845075 
L 137.569091 15.35917 
L 141.627273 15.05983 
L 147.714545 14.892626 
L 162.932727 14.768412 
L 166.990909 14.787291 
L 166.990909 14.787291 
" style="fill:none;stroke:#389826;stroke-linecap:square;stroke-opacity:0.9;stroke-width:6;"/>
   </g>
   <g id="line2d_2">
    <path clip-path="url(#p9882393ad9)" d="M 14.809091 21.424619 
L 29.012727 21.483089 
L 32.056364 21.706827 
L 34.085455 22.033284 
L 36.114545 22.617978 
L 37.129091 23.055085 
L 38.143636 23.62228 
L 39.158182 24.349551 
L 40.172727 25.272015 
L 41.187273 26.428293 
L 42.201818 27.859753 
L 43.216364 29.609142 
L 44.230909 31.717231 
L 45.245455 34.221541 
L 46.26 37.151569 
L 47.274545 40.526198 
L 48.289091 44.349019 
L 50.318182 53.263636 
L 52.347273 63.552033 
L 58.434545 95.876793 
L 60.463636 104.825259 
L 62.492727 112.165942 
L 63.507273 115.209115 
L 64.521818 117.846744 
L 65.536364 120.100512 
L 66.550909 121.999451 
L 67.565455 123.578649 
L 68.58 124.878241 
L 69.594545 125.94282 
L 71.623636 127.563976 
L 75.681818 130.274527 
L 77.710909 132.13979 
L 79.74 134.620809 
L 81.769091 137.646632 
L 85.827273 144.131472 
L 87.856364 146.925417 
L 89.885455 149.133779 
L 90.9 149.991985 
L 91.914545 150.681934 
L 92.929091 151.203594 
L 93.943636 151.557622 
L 94.958182 151.744168 
L 95.972727 151.761804 
L 96.987273 151.597585 
L 98.001818 151.251559 
L 99.016364 150.710816 
L 100.030909 149.958619 
L 101.045455 148.973937 
L 102.06 147.731344 
L 103.074545 146.20118 
L 104.089091 144.350041 
L 105.103636 142.141905 
L 106.118182 139.539855 
L 107.132727 136.508528 
L 108.147273 133.017286 
L 109.161818 129.044 
L 111.190909 119.62833 
L 113.22 108.395123 
L 116.263636 89.207593 
L 119.307273 69.677619 
L 121.336364 57.939514 
L 123.365455 47.947844 
L 124.38 43.698366 
L 125.394545 39.953627 
L 126.409091 36.697551 
L 127.423636 33.901533 
L 128.438182 31.528254 
L 129.452727 29.53521 
L 130.467273 27.8776 
L 131.481818 26.511562 
L 132.496364 25.394604 
L 133.510909 24.48725 
L 134.525455 23.754951 
L 136.554545 22.692607 
L 138.583636 22.011129 
L 140.612727 21.575849 
L 143.656364 21.191184 
L 147.714545 20.921844 
L 155.830909 20.668723 
L 166.990909 20.543008 
L 166.990909 20.543008 
" style="fill:none;stroke:#9558b2;stroke-linecap:square;stroke-opacity:0.9;stroke-width:6;"/>
   </g>
   <g id="line2d_3">
    <path clip-path="url(#p9882393ad9)" d="M 14.809091 39.309517 
L 26.983636 39.334774 
L 30.027273 39.634522 
L 32.056364 40.103566 
L 33.070909 40.475903 
L 34.085455 40.978057 
L 35.1 41.647365 
L 36.114545 42.528443 
L 37.129091 43.674835 
L 38.143636 45.147953 
L 39.158182 47.015795 
L 40.172727 49.350878 
L 41.187273 52.22429 
L 42.201818 55.701973 
L 43.216364 59.835142 
L 44.230909 64.651538 
L 45.245455 70.146687 
L 47.274545 82.952008 
L 53.361818 125.453 
L 55.390909 136.573909 
L 56.405455 141.135674 
L 57.42 145.039959 
L 58.434545 148.330839 
L 59.449091 151.069634 
L 60.463636 153.32536 
L 61.478182 155.167492 
L 62.492727 156.661034 
L 63.507273 157.863807 
L 64.521818 158.825535 
L 65.536364 159.588023 
L 66.550909 160.186104 
L 68.58 161.001086 
L 70.609091 161.458177 
L 73.652727 161.804107 
L 76.696364 162.140724 
L 79.74 162.755683 
L 83.798182 163.941433 
L 87.856364 165.053905 
L 90.9 165.626652 
L 93.943636 165.923703 
L 96.987273 165.926472 
L 99.016364 165.748992 
L 101.045455 165.405174 
L 103.074545 164.856652 
L 105.103636 164.034532 
L 107.132727 162.814195 
L 108.147273 161.990497 
L 109.161818 160.973153 
L 110.176364 159.709883 
L 111.190909 158.136008 
L 112.205455 156.174938 
L 113.22 153.740976 
L 114.234545 150.745128 
L 115.249091 147.104 
L 116.263636 142.750961 
L 117.278182 137.656062 
L 118.292727 131.84573 
L 120.321818 118.37588 
L 125.394545 81.593685 
L 127.423636 69.309281 
L 128.438182 64.11715 
L 129.452727 59.58461 
L 130.467273 55.691814 
L 131.481818 52.396529 
L 132.496364 49.642609 
L 133.510909 47.366131 
L 134.525455 45.501142 
L 135.54 43.983271 
L 136.554545 42.753445 
L 137.569091 41.761294 
L 138.583636 40.963941 
L 140.612727 39.8101 
L 142.641818 39.058279 
L 144.670909 38.553584 
L 147.714545 38.059699 
L 151.772727 37.650178 
L 157.86 37.27035 
L 164.961818 36.992074 
L 166.990909 36.976252 
L 166.990909 36.976252 
" style="fill:none;stroke:#cb3c33;stroke-linecap:square;stroke-opacity:0.9;stroke-width:6;"/>
   </g>
  </g>
 </g>
 <defs>
  <clipPath id="p9882393ad9">
   <rect height="166.32" width="167.4" x="7.2" y="7.2"/>
  </clipPath>
 </defs>
</svg>
